<?xml version="1.0" standalone="no"?><!DOCTYPE svg PUBLIC "-//W3C//DTD SVG 1.1//EN" "http://www.w3.org/Graphics/SVG/1.1/DTD/svg11.dtd"><svg t="1636103191475" class="icon" viewBox="0 0 1024 1024" version="1.1" xmlns="http://www.w3.org/2000/svg" p-id="8912" xmlns:xlink="http://www.w3.org/1999/xlink" width="200" height="200"><defs><style type="text/css"></style></defs><path d="M659.72 64.19H270.4c-78.06 0-141.33 63.28-141.33 141.33v612.95c0 78.06 63.28 141.33 141.33 141.33h485.49c78.06 0 141.33-63.28 141.33-141.33V301.69c0-31.83-12.64-62.35-35.15-84.85l-117.5-117.5a119.958 119.958 0 0 0-84.85-35.15z" fill="#8B72F7" p-id="8913"></path><path d="M862.07 216.83l-117.5-117.5a120.029 120.029 0 0 0-61.74-32.89v131.88c0 41.87 33.94 75.81 75.81 75.81H894a120.006 120.006 0 0 0-31.93-57.3zM470.34 532.68l-90.17-48.97c-14.7-6.9-26.82-0.52-26.95 14.18l-0.9 106.41c-0.12 14.7 11.8 32.38 26.5 39.28l90.17 48.97c14.7 6.9 26.82 0.52 26.95-14.18l0.9-106.41c0.12-14.7-11.8-32.37-26.5-39.28zM653.45 453.92c16.61-11.17 17.55-28.04 2.08-37.48L539.56 360.1c-16.34-8.45-30.61-9.12-50.33 1.13l-116.51 55.9c-16.61 11.17-17.55 28.04-2.08 37.48l111.97 60.34c15.47 9.45 38.27 9.2 58.33-1.13l112.51-59.9zM646.12 481.71l-97.17 51.97c-14.7 6.9-26.62 24.58-26.5 39.28l0.9 108.41c0.12 14.7 12.25 21.08 26.95 14.18l97.17-51.97c14.7-6.9 26.62-24.58 26.5-39.28l-0.9-108.41c-0.12-14.7-12.25-21.08-26.95-14.18z" fill="#7463EA" p-id="8914"></path><path d="M470.34 521.68l-90.17-48.97c-14.7-6.9-26.82-0.52-26.95 14.18l-0.9 106.41c-0.12 14.7 11.8 32.38 26.5 39.28l90.17 48.97c14.7 6.9 26.82 0.52 26.95-14.18l0.9-106.41c0.12-14.7-11.8-32.37-26.5-39.28zM653.45 442.92c16.61-11.17 17.55-28.04 2.08-37.48L539.56 349.1c-16.34-8.45-30.61-9.12-50.33 1.13l-116.51 55.9c-16.61 11.17-17.55 28.04-2.08 37.48l111.97 60.34c15.47 9.45 38.27 9.2 58.33-1.13l112.51-59.9zM673.07 484.89c-0.12-14.7-12.25-21.08-26.95-14.18l-97.17 51.97c-14.7 6.9-26.62 24.58-26.5 39.28l0.9 108.41c0.12 14.7 12.25 21.08 26.95 14.18l97.17-51.97c14.7-6.9 26.62-24.58 26.5-39.28l-0.9-108.41z" fill="#FFFFFF" p-id="8915"></path></svg>