<?xml version="1.0" standalone="no"?><!DOCTYPE svg PUBLIC "-//W3C//DTD SVG 1.1//EN" "http://www.w3.org/Graphics/SVG/1.1/DTD/svg11.dtd"><svg t="1636103184278" class="icon" viewBox="0 0 1024 1024" version="1.1" xmlns="http://www.w3.org/2000/svg" p-id="8755" xmlns:xlink="http://www.w3.org/1999/xlink" width="200" height="200"><defs><style type="text/css"></style></defs><path d="M659.7 64.2H270.4c-78.1 0-141.3 63.3-141.3 141.3v612.9c0 78.1 63.3 141.3 141.3 141.3h485.5c78.1 0 141.3-63.3 141.3-141.3V301.7c0-31.8-12.6-62.3-35.1-84.9L744.6 99.3c-22.5-22.5-53.1-35.1-84.9-35.1z" fill="#F98950" p-id="8756"></path><path d="M862.1 216.8L744.6 99.3c-17-17-38.5-28.3-61.7-32.9v131.9c0 41.9 33.9 75.8 75.8 75.8H894c-5.1-21.5-16-41.4-31.9-57.3zM639.7 372.4H386.6c-13.8 0-25 11.3-25 25V433c0 13.8 11.3 25 25 25h253.1c13.8 0 25-11.3 25-25v-35.6c0-13.8-11.2-25-25-25z m-204.5 42.8c0 10-10.9 17.7-21.4 11.6-3.8-2.2-6.1-6.3-6.1-10.7v-1.2c0-5.2 3-10 7.7-12.1 10-4.5 19.8 2.9 19.8 12.4zM639.7 481.2H386.6c-13.8 0-25 11.3-25 25v35.6c0 13.8 11.3 25 25 25h253.1c13.8 0 25-11.3 25-25v-35.6c0-13.8-11.2-25-25-25zM435.2 524c0 10-10.9 17.7-21.4 11.6-3.8-2.2-6.1-6.3-6.1-10.7v-1.2c0-5.2 3-10 7.7-12.1 10-4.5 19.8 2.9 19.8 12.4zM639.7 589.9H386.6c-13.8 0-25 11.3-25 25v35.6c0 13.8 11.3 25 25 25h253.1c13.8 0 25-11.3 25-25V615c0-13.8-11.2-25.1-25-25.1z m-204.5 42.9c0 10-10.9 17.7-21.4 11.6-3.8-2.2-6.1-6.3-6.1-10.7v-1.2c0-5.2 3-10 7.7-12.1 10-4.5 19.8 2.8 19.8 12.4z" fill="#F26C38" p-id="8757"></path><path d="M639.7 360.4H386.6c-13.8 0-25 11.3-25 25V421c0 13.8 11.3 25 25 25h253.1c13.8 0 25-11.3 25-25v-35.6c0-13.8-11.2-25-25-25z m-204.5 42.8c0 10-10.9 17.7-21.4 11.6-3.8-2.2-6.1-6.3-6.1-10.7v-1.2c0-5.2 3-10 7.7-12.1 10-4.5 19.8 2.9 19.8 12.4zM639.7 469.2H386.6c-13.8 0-25 11.3-25 25v35.6c0 13.8 11.3 25 25 25h253.1c13.8 0 25-11.3 25-25v-35.6c0-13.8-11.2-25-25-25zM435.2 512c0 10-10.9 17.7-21.4 11.6-3.8-2.2-6.1-6.3-6.1-10.7v-1.2c0-5.2 3-10 7.7-12.1 10-4.5 19.8 2.9 19.8 12.4zM639.7 577.9H386.6c-13.8 0-25 11.3-25 25v35.6c0 13.8 11.3 25 25 25h253.1c13.8 0 25-11.3 25-25V603c0-13.8-11.2-25.1-25-25.1z m-204.5 42.9c0 10-10.9 17.7-21.4 11.6-3.8-2.2-6.1-6.3-6.1-10.7v-1.2c0-5.2 3-10 7.7-12.1 10-4.5 19.8 2.8 19.8 12.4z" fill="#FFFFFF" p-id="8758"></path></svg>