<?xml version="1.0" standalone="no"?><!DOCTYPE svg PUBLIC "-//W3C//DTD SVG 1.1//EN" "http://www.w3.org/Graphics/SVG/1.1/DTD/svg11.dtd"><svg t="1636103167359" class="icon" viewBox="0 0 1024 1024" version="1.1" xmlns="http://www.w3.org/2000/svg" p-id="8129" xmlns:xlink="http://www.w3.org/1999/xlink" width="200" height="200"><defs><style type="text/css"></style></defs><path d="M659.72 64.19H270.4c-78.06 0-141.33 63.28-141.33 141.33v612.95c0 78.06 63.28 141.33 141.33 141.33h485.49c78.06 0 141.33-63.28 141.33-141.33V301.69c0-31.83-12.64-62.35-35.15-84.85l-117.5-117.5a120.017 120.017 0 0 0-84.85-35.15z" fill="#8B72F7" p-id="8130"></path><path d="M862.07 216.84l-117.5-117.5a120.001 120.001 0 0 0-61.75-32.9v131.88c0 41.87 33.94 75.81 75.81 75.81H894a119.975 119.975 0 0 0-31.93-57.29zM627.66 386.46c13.25 0 24-10.75 24-24s-10.75-24-24-24H398.62c-13.25 0-24 10.75-24 24v323.08c0 13.25 10.75 24 24 24h229.05c13.25 0 24-10.75 24-24s-10.75-24-24-24H422.62V548h178.85c13.25 0 24-10.75 24-24s-10.75-24-24-24H422.62V386.46h205.04z" fill="#7463EA" p-id="8131"></path><path d="M627.66 649.54H422.62V536h178.85c13.25 0 24-10.75 24-24s-10.75-24-24-24H422.62V374.46h205.05c13.25 0 24-10.75 24-24s-10.75-24-24-24H398.62c-13.25 0-24 10.75-24 24v323.08c0 13.25 10.75 24 24 24h229.05c13.25 0 24-10.75 24-24s-10.75-24-24.01-24z" fill="#FFFFFF" p-id="8132"></path></svg>