<?xml version="1.0" standalone="no"?><!DOCTYPE svg PUBLIC "-//W3C//DTD SVG 1.1//EN" "http://www.w3.org/Graphics/SVG/1.1/DTD/svg11.dtd"><svg t="1636103119047" class="icon" viewBox="0 0 1024 1024" version="1.1" xmlns="http://www.w3.org/2000/svg" p-id="5985" xmlns:xlink="http://www.w3.org/1999/xlink" width="200" height="200"><defs><style type="text/css"></style></defs><path d="M65.3 755.4V269.9c0-78.1 63.3-141.3 141.3-141.3h612.9c78.1 0 141.3 63.3 141.3 141.3v485.5c0 78.1-63.3 141.3-141.3 141.3H206.7c-78.1 0-141.4-63.3-141.4-141.3z" fill="#8B72F7" p-id="5986"></path><path d="M557.3 406.6H308c-22.1 0-40 17.9-40 40v155.9c0 22.1 17.9 40 40 40h249.3c22.1 0 40-17.9 40-40V446.6c0-22-17.9-40-40-40zM738.8 412.7L655 491c-19.5 18.2-19.5 49 0 67.2l83.8 78.3c14.2 13.3 37.5 3.2 37.5-16.2V428.9c0-19.4-23.3-29.5-37.5-16.2z" fill="#7463EA" p-id="5987"></path><path d="M557.3 394.6H308c-22.1 0-40 17.9-40 40v155.9c0 22.1 17.9 40 40 40h249.3c22.1 0 40-17.9 40-40V434.6c0-22-17.9-40-40-40zM738.8 400.7L655 479c-19.5 18.2-19.5 49 0 67.2l83.8 78.3c14.2 13.3 37.5 3.2 37.5-16.2V416.9c0-19.4-23.3-29.5-37.5-16.2z" fill="#FFFFFF" p-id="5988"></path></svg>