<?xml version="1.0" standalone="no"?><!DOCTYPE svg PUBLIC "-//W3C//DTD SVG 1.1//EN" "http://www.w3.org/Graphics/SVG/1.1/DTD/svg11.dtd"><svg t="1636103199380" class="icon" viewBox="0 0 1024 1024" version="1.1" xmlns="http://www.w3.org/2000/svg" p-id="9224" xmlns:xlink="http://www.w3.org/1999/xlink" width="200" height="200"><defs><style type="text/css"></style></defs><path d="M659.8 64.2H270.4c-78.1 0-141.3 63.3-141.3 141.3v612.9c0 78.1 63.3 141.3 141.3 141.3h485.5c78.1 0 141.3-63.3 141.3-141.3V301.7c0-31.8-12.6-62.3-35.1-84.9L744.6 99.3c-22.5-22.5-53-35.1-84.8-35.1z" fill="#8B72F7" p-id="9225"></path><path d="M861.7 216.8L744.2 99.3c-17-17-38.5-28.3-61.7-32.9v131.9c0 41.9 33.9 75.8 75.8 75.8h135.4c-5.2-21.6-16.1-41.5-32-57.3zM585.6 350.4H440.8c-17.2 0-33.1 9.2-41.7 24.1l-72.4 125.4c-8.6 14.9-8.6 33.3 0 48.2l72.4 125.4c8.6 14.9 24.5 24.1 41.7 24.1h144.8c17.2 0 33.1-9.2 41.7-24.1l72.4-125.4c8.6-14.9 8.6-33.3 0-48.2l-72.4-125.4c-8.6-14.9-24.5-24.1-41.7-24.1z m-71 247.7c-42 0.8-76.2-33.4-75.5-75.5 0.7-39.6 33.1-71.9 72.7-72.7 42-0.8 76.2 33.4 75.5 75.5-0.8 39.6-33.1 71.9-72.7 72.7z" fill="#7463EA" p-id="9226"></path><path d="M585.6 338.4H440.8c-17.2 0-33.1 9.2-41.7 24.1l-72.4 125.4c-8.6 14.9-8.6 33.3 0 48.2l72.4 125.4c8.6 14.9 24.5 24.1 41.7 24.1h144.8c17.2 0 33.1-9.2 41.7-24.1l72.4-125.4c8.6-14.9 8.6-33.3 0-48.2l-72.4-125.4c-8.6-14.9-24.5-24.1-41.7-24.1z m-71 247.7c-42 0.8-76.2-33.4-75.5-75.5 0.7-39.6 33.1-71.9 72.7-72.7 42-0.8 76.2 33.4 75.5 75.5-0.8 39.6-33.1 71.9-72.7 72.7z" fill="#FFFFFF" p-id="9227"></path></svg>