<?xml version="1.0" standalone="no"?><!DOCTYPE svg PUBLIC "-//W3C//DTD SVG 1.1//EN" "http://www.w3.org/Graphics/SVG/1.1/DTD/svg11.dtd"><svg t="1636103177041" class="icon" viewBox="0 0 1024 1024" version="1.1" xmlns="http://www.w3.org/2000/svg" p-id="8443" xmlns:xlink="http://www.w3.org/1999/xlink" width="200" height="200"><defs><style type="text/css"></style></defs><path d="M659.72 64.19H270.4c-78.06 0-141.33 63.28-141.33 141.33v612.95c0 78.06 63.28 141.33 141.33 141.33h485.49c78.06 0 141.33-63.28 141.33-141.33V301.69c0-31.83-12.64-62.35-35.15-84.85l-117.5-117.5a120.017 120.017 0 0 0-84.85-35.15z" fill="#4FD397" p-id="8444"></path><path d="M862.07 216.84l-117.5-117.5a120.001 120.001 0 0 0-61.75-32.9v131.88c0 41.87 33.94 75.81 75.81 75.81H894a119.975 119.975 0 0 0-31.93-57.29zM670.25 381.88H517.97a24.052 24.052 0 0 0-9.66 0H356.03c-13.25 0-24 10.75-24 24s10.75 24 24 24h133.11v258.73c0 13.25 10.75 24 24 24s24-10.75 24-24V429.88h133.11c13.25 0 24-10.75 24-24s-10.75-24-24-24z" fill="#19BC6E" p-id="8445"></path><path d="M670.25 369.88H517.97a24.052 24.052 0 0 0-9.66 0H356.03c-13.25 0-24 10.75-24 24s10.75 24 24 24h133.11v258.73c0 13.25 10.75 24 24 24s24-10.75 24-24V417.88h133.11c13.25 0 24-10.75 24-24s-10.75-24-24-24z" fill="#FFFFFF" p-id="8446"></path></svg>