<?xml version="1.0" standalone="no"?><!DOCTYPE svg PUBLIC "-//W3C//DTD SVG 1.1//EN" "http://www.w3.org/Graphics/SVG/1.1/DTD/svg11.dtd"><svg t="1636103180416" class="icon" viewBox="0 0 1024 1024" version="1.1" xmlns="http://www.w3.org/2000/svg" p-id="8600" xmlns:xlink="http://www.w3.org/1999/xlink" width="200" height="200"><defs><style type="text/css"></style></defs><path d="M659.7 64.2H270.4c-78.1 0-141.3 63.3-141.3 141.3v612.9c0 78.1 63.3 141.3 141.3 141.3h485.5c78.1 0 141.3-63.3 141.3-141.3V301.7c0-31.8-12.6-62.3-35.1-84.9L744.6 99.3c-22.5-22.5-53.1-35.1-84.9-35.1z" fill="#53B7F4" p-id="8601"></path><path d="M758.6 274.1H894c-5.1-21.5-16-41.4-31.9-57.3L744.6 99.3c-17-17-38.5-28.3-61.7-32.9v131.9c-0.1 41.9 33.9 75.8 75.7 75.8zM741.4 401.2H591.2c-8.3 0-16.1 4.3-20.4 11.4L465 584.4l-1.2 2-26.2 42.5-109.9-179.7h96.8l54.7 81.4 27.6-45.1-49.5-73.8c-4.5-6.6-11.9-10.6-19.9-10.6H284.9c-8.7 0-16.7 4.7-20.9 12.3-4.2 7.6-4.1 16.9 0.5 24.3l152.7 249.6c4.3 7.1 12.1 11.5 20.4 11.5 8.3 0 16.1-4.3 20.4-11.4l146.5-238.2h96.4l-98.1 179.4-46.8-69.8-27.7 44.9 56.7 84.5c4.5 6.7 11.9 10.6 19.9 10.6h1.1c8.4-0.4 15.9-5.1 20-12.5l136.4-249.6c4.1-7.4 3.9-16.5-0.4-23.8-4.3-7.2-12.1-11.7-20.6-11.7z" fill="#29A3D3" p-id="8602"></path><path d="M762.4 424.7L626 674.3c-4 7.4-11.6 12.1-20 12.5h-1.1c-8 0-15.4-4-19.9-10.6l-56.7-84.5 27.7-44.9 46.9 69.8L701 437.2h-96.4L458 675.4c-4.4 7.1-12.1 11.4-20.4 11.4-8.4 0-16.1-4.4-20.4-11.5L264.4 425.7c-4.5-7.4-4.7-16.7-0.5-24.3 4.2-7.6 12.2-12.3 20.9-12.3h152.4c8 0 15.5 4 19.9 10.6l49.5 73.8-27.6 45.1-54.7-81.4h-96.8l109.9 179.7 26.2-42.5 1.2-2 105.7-171.8c4.4-7.1 12.1-11.4 20.4-11.4h150.2c8.5 0 16.3 4.5 20.6 11.8 4.6 7.2 4.8 16.3 0.7 23.7z" fill="#FFFFFF" p-id="8603"></path></svg>