<?xml version="1.0" standalone="no"?><!DOCTYPE svg PUBLIC "-//W3C//DTD SVG 1.1//EN" "http://www.w3.org/Graphics/SVG/1.1/DTD/svg11.dtd"><svg t="1636103110391" class="icon" viewBox="0 0 1024 1024" version="1.1" xmlns="http://www.w3.org/2000/svg" p-id="5701" xmlns:xlink="http://www.w3.org/1999/xlink" width="200" height="200"><defs><style type="text/css"></style></defs><path d="M788.14 928.23h-550c-77.32 0-140-62.68-140-140v-550c0-77.32 62.68-140 140-140h550c77.32 0 140 62.68 140 140v550c0 77.32-62.68 140-140 140z" fill="#FF7878" p-id="5702"></path><path d="M682.2 326.8a27.8 27.8 0 0 0-10.04-21.39 27.807 27.807 0 0 0-22.87-5.93l-261.58 49.04c-13.15 2.46-22.67 13.94-22.67 27.32l0.18 250.12a64.668 64.668 0 0 0-22.39-3.98c-35.76 0-64.74 28.99-64.74 64.74 0 35.76 28.99 64.74 64.74 64.74s64.74-28.99 64.74-64.74V450.77l232.29-43.55v169.7a64.668 64.668 0 0 0-22.39-3.98c-35.76 0-64.74 28.99-64.74 64.74s28.99 64.74 64.74 64.74 64.74-28.99 64.74-64.74c-0.01-1.19-0.01-310.88-0.01-310.88z" fill="#EF5252" p-id="5703"></path><path d="M682.2 314.8a27.8 27.8 0 0 0-10.04-21.39 27.807 27.807 0 0 0-22.87-5.93l-261.58 49.04c-13.15 2.46-22.67 13.94-22.67 27.32l0.18 250.12a64.668 64.668 0 0 0-22.39-3.98c-35.76 0-64.74 28.99-64.74 64.74 0 35.76 28.99 64.74 64.74 64.74s64.74-28.99 64.74-64.74V438.77l232.29-43.55v169.7a64.668 64.668 0 0 0-22.39-3.98c-35.76 0-64.74 28.99-64.74 64.74s28.99 64.74 64.74 64.74 64.74-28.99 64.74-64.74c-0.01-1.19-0.01-310.88-0.01-310.88z" fill="#FFFFFF" p-id="5704"></path></svg>