<?xml version="1.0" standalone="no"?><!DOCTYPE svg PUBLIC "-//W3C//DTD SVG 1.1//EN" "http://www.w3.org/Graphics/SVG/1.1/DTD/svg11.dtd"><svg t="1636103114207" class="icon" viewBox="0 0 1024 1024" version="1.1" xmlns="http://www.w3.org/2000/svg" p-id="5843" xmlns:xlink="http://www.w3.org/1999/xlink" width="200" height="200"><defs><style type="text/css"></style></defs><path d="M659.72 64.19H270.4c-78.06 0-141.33 63.28-141.33 141.33v612.95c0 78.06 63.28 141.33 141.33 141.33h485.49c78.06 0 141.33-63.28 141.33-141.33V301.69c0-31.83-12.64-62.35-35.15-84.85l-117.5-117.5a120.017 120.017 0 0 0-84.85-35.15z" fill="#53B7F4" p-id="5844"></path><path d="M862.07 216.84l-117.5-117.5a120.001 120.001 0 0 0-61.75-32.9v131.88c0 41.87 33.94 75.81 75.81 75.81H894a119.975 119.975 0 0 0-31.93-57.29zM410.97 407.96c-9.37-9.37-24.57-9.37-33.94 0L274.97 510.01c-9.37 9.37-9.37 24.57 0 33.94L377.02 646a23.919 23.919 0 0 0 16.97 7.03c6.14 0 12.29-2.34 16.97-7.03 9.37-9.37 9.37-24.57 0-33.94l-85.08-85.08 85.08-85.08c9.38-9.37 9.38-24.57 0.01-33.94zM649.25 407.96c-9.37-9.37-24.57-9.37-33.94 0-9.37 9.37-9.37 24.57 0 33.94l85.08 85.08-85.08 85.08c-9.37 9.37-9.37 24.57 0 33.94 4.69 4.69 10.83 7.03 16.97 7.03s12.28-2.34 16.97-7.03L751.3 543.95c9.37-9.37 9.37-24.57 0-33.94L649.25 407.96zM566.34 360.5c-12.64-3.99-26.12 3.02-30.11 15.66l-91.94 291.23c-3.99 12.64 3.02 26.12 15.66 30.11 2.4 0.76 4.84 1.12 7.23 1.12 10.19 0 19.65-6.55 22.88-16.78L582 390.61c3.99-12.64-3.02-26.12-15.66-30.11z" fill="#29A3D3" p-id="5845"></path><path d="M410.97 395.96c-9.37-9.37-24.57-9.37-33.94 0L274.97 498.01c-9.37 9.37-9.37 24.57 0 33.94L377.02 634a23.919 23.919 0 0 0 16.97 7.03c6.14 0 12.29-2.34 16.97-7.03 9.37-9.37 9.37-24.57 0-33.94l-85.08-85.08 85.08-85.08c9.38-9.37 9.38-24.57 0.01-33.94zM751.31 498.01L649.25 395.96c-9.37-9.37-24.57-9.37-33.94 0-9.37 9.37-9.37 24.57 0 33.94l85.08 85.08-85.08 85.08c-9.37 9.37-9.37 24.57 0 33.94 4.69 4.69 10.83 7.03 16.97 7.03s12.28-2.34 16.97-7.03L751.3 531.95c9.38-9.37 9.38-24.56 0.01-33.94zM566.34 348.5c-12.64-3.99-26.12 3.02-30.11 15.66l-91.94 291.23c-3.99 12.64 3.02 26.12 15.66 30.11 2.4 0.76 4.84 1.12 7.23 1.12 10.19 0 19.65-6.55 22.88-16.78L582 378.61c3.99-12.64-3.02-26.12-15.66-30.11z" fill="#FFFFFF" p-id="5846"></path></svg>