<svg width="100%" height="100%" id="svg" viewBox="0 0 1440 400" xmlns="http://www.w3.org/2000/svg" class="transition duration-300 ease-in-out delay-150"><defs><linearGradient id="gradient" x1="0%" y1="54%" x2="100%" y2="46%"><stop offset="5%" stop-color="#6388ff88"></stop><stop offset="95%" stop-color="#8ed1fc88"></stop></linearGradient></defs><path d="M 0,400 C 0,400 0,133 0,133 C 77.30264513912746,111.14840261078668 154.60529027825493,89.29680522157335 217,97 C 279.3947097217451,104.70319477842665 326.88148402610784,141.9611817244933 395,142 C 463.11851597389216,142.0388182755067 551.8687736173138,104.85846788045345 621,109 C 690.1312263826862,113.14153211954655 739.6434215046377,158.6049467536929 797,170 C 854.3565784953623,181.3950532463071 919.5575403641358,158.72174510477498 1002,140 C 1084.4424596358642,121.278254895225 1184.1264170388183,106.50807282720713 1260,106 C 1335.8735829611817,105.49192717279287 1387.9367914805907,119.24596358639644 1440,133 C 1440,133 1440,400 1440,400 Z" stroke="none" stroke-width="0" fill="url(#gradient)" class="transition-all duration-300 ease-in-out delay-150 path-0"></path><defs><linearGradient id="gradient" x1="0%" y1="54%" x2="100%" y2="46%"><stop offset="5%" stop-color="#6388ffff"></stop><stop offset="95%" stop-color="#8ed1fcff"></stop></linearGradient></defs><path d="M 0,400 C 0,400 0,266 0,266 C 81.78838886980421,283.6413603572655 163.57677773960842,301.2827207145311 228,308 C 292.4232222603916,314.7172792854689 339.4812779113706,310.5104774991412 402,299 C 464.5187220886294,287.4895225008588 542.4981106149089,268.6753692889041 626,259 C 709.5018893850911,249.32463071109586 798.5262796289935,248.7880453452422 860,257 C 921.4737203710065,265.2119546547578 955.3967708691173,282.1724493301271 1022,284 C 1088.6032291308827,285.8275506698729 1187.8866368945378,272.52215733424936 1263,267 C 1338.1133631054622,261.47784266575064 1389.056681552731,263.7389213328753 1440,266 C 1440,266 1440,400 1440,400 Z" stroke="none" stroke-width="0" fill="url(#gradient)" class="transition-all duration-300 ease-in-out delay-150 path-1"></path></svg>
